<?xml version="1.0" encoding="utf-8" standalone="no"?>
<!DOCTYPE svg PUBLIC "-//W3C//DTD SVG 1.1//EN"
  "http://www.w3.org/Graphics/SVG/1.1/DTD/svg11.dtd">
<svg xmlns:xlink="http://www.w3.org/1999/xlink" width="518.4pt" height="302.4pt" viewBox="0 0 518.4 302.4" xmlns="http://www.w3.org/2000/svg" version="1.1">
 <metadata>
  <rdf:RDF xmlns:dc="http://purl.org/dc/elements/1.1/" xmlns:cc="http://creativecommons.org/ns#" xmlns:rdf="http://www.w3.org/1999/02/22-rdf-syntax-ns#">
   <cc:Work>
    <dc:type rdf:resource="http://purl.org/dc/dcmitype/StillImage"/>
    <dc:date>2026-09-28T14:36:49.764298</dc:date>
    <dc:format>image/svg+xml</dc:format>
    <dc:creator>
     <cc:Agent>
      <dc:title>Matplotlib v3.11.2, https://matplotlib.org/</dc:title>
     </cc:Agent>
    </dc:creator>
   </cc:Work>
  </rdf:RDF>
 </metadata>
 <defs>
  <style type="text/css">*{stroke-linejoin: round; stroke-linecap: butt}</style>
 </defs>
 <g id="figure_1">
  <g id="patch_1">
   <path d="M 0 302.4 
L 518.4 302.4 
L 518.4 0 
L 0 0 
z
" style="fill: #ffffff"/>
  </g>
  <g id="axes_1">
   <g id="patch_2">
    <path d="M 49.493287 266.398901 
L 515.39976 266.398901 
L 515.39976 3.00024 
L 49.493287 3.00024 
z
" style="fill: #ffffff"/>
   </g>
   <g id="matplotlib.axis_1">
    <g id="xtick_1">
     <g id="line2d_1">
      <defs>
       <path id="m43f67aa159" d="M 0 0 
L 0 3.5 
" style="stroke: #000000; stroke-width: 0.8"/>
      </defs>
      <g>
       <use xlink:href="#m43f67aa159" x="199.785698" y="266.398901" style="stroke: #000000; stroke-width: 0.8"/>
      </g>
     </g>
     <g id="text_1">
      <text style="font-size: 11px; font-family: 'DejaVu Sans', 'Bitstream Vera Sans', 'Computer Modern Sans Serif', 'Lucida Grande', 'Verdana', 'Geneva', 'Lucid', 'Arial', 'Helvetica', 'Avant Garde', sans-serif; text-anchor: middle" x="199.785698" y="281.756323" transform="rotate(-0 199.785698 281.756323)">1</text>
     </g>
    </g>
    <g id="xtick_2">
     <g id="line2d_2">
      <g>
       <use xlink:href="#m43f67aa159" x="350.078108" y="266.398901" style="stroke: #000000; stroke-width: 0.8"/>
      </g>
     </g>
     <g id="text_2">
      <text style="font-size: 11px; font-family: 'DejaVu Sans', 'Bitstream Vera Sans', 'Computer Modern Sans Serif', 'Lucida Grande', 'Verdana', 'Geneva', 'Lucid', 'Arial', 'Helvetica', 'Avant Garde', sans-serif; text-anchor: middle" x="350.078108" y="281.756323" transform="rotate(-0 350.078108 281.756323)">2</text>
     </g>
    </g>
    <g id="xtick_3">
     <g id="line2d_3">
      <g>
       <use xlink:href="#m43f67aa159" x="500.370519" y="266.398901" style="stroke: #000000; stroke-width: 0.8"/>
      </g>
     </g>
     <g id="text_3">
      <text style="font-size: 11px; font-family: 'DejaVu Sans', 'Bitstream Vera Sans', 'Computer Modern Sans Serif', 'Lucida Grande', 'Verdana', 'Geneva', 'Lucid', 'Arial', 'Helvetica', 'Avant Garde', sans-serif; text-anchor: middle" x="500.370519" y="281.756323" transform="rotate(-0 500.370519 281.756323)">3</text>
     </g>
    </g>
    <g id="text_4">
     <text style="font-size: 11px; font-family: 'DejaVu Sans', 'Bitstream Vera Sans', 'Computer Modern Sans Serif', 'Lucida Grande', 'Verdana', 'Geneva', 'Lucid', 'Arial', 'Helvetica', 'Avant Garde', sans-serif; text-anchor: middle" x="282.446523" y="296.757182" transform="rotate(-0 282.446523 296.757182)">Epoch</text>
    </g>
   </g>
   <g id="matplotlib.axis_2">
    <g id="ytick_1">
     <g id="line2d_4">
      <path d="M 49.493287 266.398901 
L 515.39976 266.398901 
" clip-path="url(#p5a7ad65671)" style="fill: none; stroke: #dddddd; stroke-width: 0.8; stroke-linecap: square"/>
     </g>
     <g id="line2d_5">
      <defs>
       <path id="mca510238cf" d="M 0 0 
L -3.5 0 
" style="stroke: #000000; stroke-width: 0.8"/>
      </defs>
      <g>
       <use xlink:href="#mca510238cf" x="49.493287" y="266.398901" style="stroke: #000000; stroke-width: 0.8"/>
      </g>
     </g>
     <g id="text_5">
      <text style="font-size: 11px; font-family: 'DejaVu Sans', 'Bitstream Vera Sans', 'Computer Modern Sans Serif', 'Lucida Grande', 'Verdana', 'Geneva', 'Lucid', 'Arial', 'Helvetica', 'Avant Garde', sans-serif; text-anchor: end" x="42.493287" y="270.577612" transform="rotate(-0 42.493287 270.577612)">0.00</text>
     </g>
    </g>
    <g id="ytick_2">
     <g id="line2d_6">
      <path d="M 49.493287 235.041917 
L 515.39976 235.041917 
" clip-path="url(#p5a7ad65671)" style="fill: none; stroke: #dddddd; stroke-width: 0.8; stroke-linecap: square"/>
     </g>
     <g id="line2d_7">
      <g>
       <use xlink:href="#mca510238cf" x="49.493287" y="235.041917" style="stroke: #000000; stroke-width: 0.8"/>
      </g>
     </g>
     <g id="text_6">
      <text style="font-size: 11px; font-family: 'DejaVu Sans', 'Bitstream Vera Sans', 'Computer Modern Sans Serif', 'Lucida Grande', 'Verdana', 'Geneva', 'Lucid', 'Arial', 'Helvetica', 'Avant Garde', sans-serif; text-anchor: end" x="42.493287" y="239.220628" transform="rotate(-0 42.493287 239.220628)">0.25</text>
     </g>
    </g>
    <g id="ytick_3">
     <g id="line2d_8">
      <path d="M 49.493287 203.684934 
L 515.39976 203.684934 
" clip-path="url(#p5a7ad65671)" style="fill: none; stroke: #dddddd; stroke-width: 0.8; stroke-linecap: square"/>
     </g>
     <g id="line2d_9">
      <g>
       <use xlink:href="#mca510238cf" x="49.493287" y="203.684934" style="stroke: #000000; stroke-width: 0.8"/>
      </g>
     </g>
     <g id="text_7">
      <text style="font-size: 11px; font-family: 'DejaVu Sans', 'Bitstream Vera Sans', 'Computer Modern Sans Serif', 'Lucida Grande', 'Verdana', 'Geneva', 'Lucid', 'Arial', 'Helvetica', 'Avant Garde', sans-serif; text-anchor: end" x="42.493287" y="207.863645" transform="rotate(-0 42.493287 207.863645)">0.50</text>
     </g>
    </g>
    <g id="ytick_4">
     <g id="line2d_10">
      <path d="M 49.493287 172.32795 
L 515.39976 172.32795 
" clip-path="url(#p5a7ad65671)" style="fill: none; stroke: #dddddd; stroke-width: 0.8; stroke-linecap: square"/>
     </g>
     <g id="line2d_11">
      <g>
       <use xlink:href="#mca510238cf" x="49.493287" y="172.32795" style="stroke: #000000; stroke-width: 0.8"/>
      </g>
     </g>
     <g id="text_8">
      <text style="font-size: 11px; font-family: 'DejaVu Sans', 'Bitstream Vera Sans', 'Computer Modern Sans Serif', 'Lucida Grande', 'Verdana', 'Geneva', 'Lucid', 'Arial', 'Helvetica', 'Avant Garde', sans-serif; text-anchor: end" x="42.493287" y="176.506661" transform="rotate(-0 42.493287 176.506661)">0.75</text>
     </g>
    </g>
    <g id="ytick_5">
     <g id="line2d_12">
      <path d="M 49.493287 140.970967 
L 515.39976 140.970967 
" clip-path="url(#p5a7ad65671)" style="fill: none; stroke: #dddddd; stroke-width: 0.8; stroke-linecap: square"/>
     </g>
     <g id="line2d_13">
      <g>
       <use xlink:href="#mca510238cf" x="49.493287" y="140.970967" style="stroke: #000000; stroke-width: 0.8"/>
      </g>
     </g>
     <g id="text_9">
      <text style="font-size: 11px; font-family: 'DejaVu Sans', 'Bitstream Vera Sans', 'Computer Modern Sans Serif', 'Lucida Grande', 'Verdana', 'Geneva', 'Lucid', 'Arial', 'Helvetica', 'Avant Garde', sans-serif; text-anchor: end" x="42.493287" y="145.149678" transform="rotate(-0 42.493287 145.149678)">1.00</text>
     </g>
    </g>
    <g id="ytick_6">
     <g id="line2d_14">
      <path d="M 49.493287 109.613984 
L 515.39976 109.613984 
" clip-path="url(#p5a7ad65671)" style="fill: none; stroke: #dddddd; stroke-width: 0.8; stroke-linecap: square"/>
     </g>
     <g id="line2d_15">
      <g>
       <use xlink:href="#mca510238cf" x="49.493287" y="109.613984" style="stroke: #000000; stroke-width: 0.8"/>
      </g>
     </g>
     <g id="text_10">
      <text style="font-size: 11px; font-family: 'DejaVu Sans', 'Bitstream Vera Sans', 'Computer Modern Sans Serif', 'Lucida Grande', 'Verdana', 'Geneva', 'Lucid', 'Arial', 'Helvetica', 'Avant Garde', sans-serif; text-anchor: end" x="42.493287" y="113.792695" transform="rotate(-0 42.493287 113.792695)">1.25</text>
     </g>
    </g>
    <g id="ytick_7">
     <g id="line2d_16">
      <path d="M 49.493287 78.257 
L 515.39976 78.257 
" clip-path="url(#p5a7ad65671)" style="fill: none; stroke: #dddddd; stroke-width: 0.8; stroke-linecap: square"/>
     </g>
     <g id="line2d_17">
      <g>
       <use xlink:href="#mca510238cf" x="49.493287" y="78.257" style="stroke: #000000; stroke-width: 0.8"/>
      </g>
     </g>
     <g id="text_11">
      <text style="font-size: 11px; font-family: 'DejaVu Sans', 'Bitstream Vera Sans', 'Computer Modern Sans Serif', 'Lucida Grande', 'Verdana', 'Geneva', 'Lucid', 'Arial', 'Helvetica', 'Avant Garde', sans-serif; text-anchor: end" x="42.493287" y="82.435711" transform="rotate(-0 42.493287 82.435711)">1.50</text>
     </g>
    </g>
    <g id="ytick_8">
     <g id="line2d_18">
      <path d="M 49.493287 46.900017 
L 515.39976 46.900017 
" clip-path="url(#p5a7ad65671)" style="fill: none; stroke: #dddddd; stroke-width: 0.8; stroke-linecap: square"/>
     </g>
     <g id="line2d_19">
      <g>
       <use xlink:href="#mca510238cf" x="49.493287" y="46.900017" style="stroke: #000000; stroke-width: 0.8"/>
      </g>
     </g>
     <g id="text_12">
      <text style="font-size: 11px; font-family: 'DejaVu Sans', 'Bitstream Vera Sans', 'Computer Modern Sans Serif', 'Lucida Grande', 'Verdana', 'Geneva', 'Lucid', 'Arial', 'Helvetica', 'Avant Garde', sans-serif; text-anchor: end" x="42.493287" y="51.078728" transform="rotate(-0 42.493287 51.078728)">1.75</text>
     </g>
    </g>
    <g id="ytick_9">
     <g id="line2d_20">
      <path d="M 49.493287 15.543033 
L 515.39976 15.543033 
" clip-path="url(#p5a7ad65671)" style="fill: none; stroke: #dddddd; stroke-width: 0.8; stroke-linecap: square"/>
     </g>
     <g id="line2d_21">
      <g>
       <use xlink:href="#mca510238cf" x="49.493287" y="15.543033" style="stroke: #000000; stroke-width: 0.8"/>
      </g>
     </g>
     <g id="text_13">
      <text style="font-size: 11px; font-family: 'DejaVu Sans', 'Bitstream Vera Sans', 'Computer Modern Sans Serif', 'Lucida Grande', 'Verdana', 'Geneva', 'Lucid', 'Arial', 'Helvetica', 'Avant Garde', sans-serif; text-anchor: end" x="42.493287" y="19.721744" transform="rotate(-0 42.493287 19.721744)">2.00</text>
     </g>
    </g>
    <g id="text_14">
     <text style="font-size: 11px; font-family: 'DejaVu Sans', 'Bitstream Vera Sans', 'Computer Modern Sans Serif', 'Lucida Grande', 'Verdana', 'Geneva', 'Lucid', 'Arial', 'Helvetica', 'Avant Garde', sans-serif; text-anchor: middle" x="11.358521" y="134.69957" transform="rotate(-90 11.358521 134.69957)">Training loss</text>
    </g>
   </g>
   <g id="line2d_22">
    <path d="M 57.504609 14.518075 
L 65.515932 77.694014 
L 73.527254 90.753191 
L 81.538577 87.810162 
L 89.5499 95.232106 
L 97.561222 93.799568 
L 105.572545 95.924279 
L 113.583867 99.549529 
L 121.59519 98.420915 
L 129.606512 97.991326 
L 137.617835 97.92677 
L 145.629157 100.024151 
L 153.64048 99.324629 
L 161.651802 101.862011 
L 169.663125 99.922716 
L 177.674447 99.71106 
L 185.68577 103.410606 
L 193.697092 101.632135 
L 201.708415 102.498796 
L 209.719737 109.277725 
L 217.73106 108.318996 
L 225.742383 107.05176 
L 233.753705 111.206512 
L 241.765028 111.900772 
L 249.77635 107.454641 
L 257.787673 112.606064 
L 265.798995 108.33601 
L 273.810318 113.100735 
L 281.82164 110.493114 
L 289.832963 112.538246 
L 297.844285 110.453506 
L 305.855608 112.391892 
L 313.86693 111.944035 
L 321.878253 111.823288 
L 329.889575 108.305226 
L 337.900898 111.408235 
L 345.912221 113.69621 
L 353.923543 111.752953 
L 361.934866 119.500161 
L 369.946188 118.376858 
L 377.957511 123.428233 
L 385.968833 116.753831 
L 393.980156 120.748871 
L 401.991478 116.915238 
L 410.002801 115.362289 
L 418.014123 121.080469 
L 426.025446 116.035093 
L 434.036768 119.482783 
L 442.048091 124.202904 
L 450.059413 120.220994 
L 458.070736 119.695673 
L 466.082058 120.605942 
L 474.093381 118.843959 
L 482.104704 117.071631 
L 490.116026 123.191611 
L 498.127349 120.279942 
" clip-path="url(#p5a7ad65671)" style="fill: none; stroke: #0072b2; stroke-width: 1.8; stroke-linecap: square"/>
   </g>
   <g id="line2d_23">
    <path d="M 57.504609 25.828124 
L 65.515932 81.89441 
L 73.527254 97.07119 
L 81.538577 91.176077 
L 89.5499 99.454321 
L 97.561222 96.820334 
L 105.572545 101.084884 
L 113.583867 103.969727 
L 121.59519 102.213736 
L 129.606512 105.725718 
L 137.617835 103.969727 
L 145.629157 105.349434 
L 153.64048 103.718871 
L 161.651802 106.227429 
L 169.663125 105.349434 
L 177.674447 106.102001 
L 185.68577 106.729141 
L 193.697092 105.725718 
L 201.708415 116.136236 
L 209.719737 145.009746 
L 217.73106 147.643733 
L 225.742383 144.420235 
L 233.753705 151.481828 
L 241.765028 152.297109 
L 249.77635 149.261753 
L 257.787673 147.71899 
L 265.798995 145.92537 
L 273.810318 151.143172 
L 281.82164 154.015472 
L 289.832963 147.593562 
L 297.844285 151.870654 
L 305.855608 153.752073 
L 313.86693 152.560508 
L 321.878253 153.187648 
L 329.889575 149.035983 
L 337.900898 151.481828 
L 345.912221 150.252634 
L 353.923543 179.402086 
L 361.934866 222.66218 
L 369.946188 220.040736 
L 377.957511 225.873135 
L 385.968833 222.285896 
L 393.980156 225.30871 
L 401.991478 224.819541 
L 410.002801 220.517363 
L 418.014123 226.487732 
L 426.025446 224.669027 
L 434.036768 223.841203 
L 442.048091 231.680449 
L 450.059413 230.589226 
L 458.070736 225.020225 
L 466.082058 228.532207 
L 474.093381 227.014529 
L 482.104704 227.165043 
L 490.116026 229.39766 
L 498.127349 230.990595 
" clip-path="url(#p5a7ad65671)" style="fill: none; stroke-dasharray: 6.66,2.88; stroke-dashoffset: 0; stroke: #d55e00; stroke-width: 1.8"/>
   </g>
   <g id="patch_3">
    <path d="M 49.493287 266.398901 
L 49.493287 3.00024 
" style="fill: none; stroke: #000000; stroke-width: 0.8; stroke-linejoin: miter; stroke-linecap: square"/>
   </g>
   <g id="patch_4">
    <path d="M 515.39976 266.398901 
L 515.39976 3.00024 
" style="fill: none; stroke: #000000; stroke-width: 0.8; stroke-linejoin: miter; stroke-linecap: square"/>
   </g>
   <g id="patch_5">
    <path d="M 49.493287 266.398901 
L 515.39976 266.398901 
" style="fill: none; stroke: #000000; stroke-width: 0.8; stroke-linejoin: miter; stroke-linecap: square"/>
   </g>
   <g id="patch_6">
    <path d="M 49.493287 3.00024 
L 515.39976 3.00024 
" style="fill: none; stroke: #000000; stroke-width: 0.8; stroke-linejoin: miter; stroke-linecap: square"/>
   </g>
   <g id="legend_1">
    <g id="line2d_24">
     <path d="M 392.493666 17.408521 
L 403.493666 17.408521 
L 414.493666 17.408521 
" style="fill: none; stroke: #0072b2; stroke-width: 1.8; stroke-linecap: square"/>
    </g>
    <g id="text_15">
     <text style="font-size: 11px; font-family: 'DejaVu Sans', 'Bitstream Vera Sans', 'Computer Modern Sans Serif', 'Lucida Grande', 'Verdana', 'Geneva', 'Lucid', 'Arial', 'Helvetica', 'Avant Garde', sans-serif; text-anchor: start" x="423.293666" y="21.258521" transform="rotate(-0 423.293666 21.258521)">LoRA</text>
    </g>
    <g id="line2d_25">
     <path d="M 392.493666 33.909381 
L 403.493666 33.909381 
L 414.493666 33.909381 
" style="fill: none; stroke-dasharray: 6.66,2.88; stroke-dashoffset: 0; stroke: #d55e00; stroke-width: 1.8"/>
    </g>
    <g id="text_16">
     <text style="font-size: 11px; font-family: 'DejaVu Sans', 'Bitstream Vera Sans', 'Computer Modern Sans Serif', 'Lucida Grande', 'Verdana', 'Geneva', 'Lucid', 'Arial', 'Helvetica', 'Avant Garde', sans-serif; text-anchor: start" x="423.293666" y="37.759381" transform="rotate(-0 423.293666 37.759381)">Full fine-tuning</text>
    </g>
   </g>
  </g>
 </g>
 <defs>
  <clipPath id="p5a7ad65671">
   <rect x="49.493287" y="3.00024" width="465.906473" height="263.398661"/>
  </clipPath>
 </defs>
</svg>
